<svg version="1.1" id="Layer_1" xmlns="http://www.w3.org/2000/svg" xmlns:xlink="http://www.w3.org/1999/xlink" x="0px" y="0px" viewBox="0 0 1000 1000" style="enable-background:new 0 0 1000 1000;" xml:space="preserve">
	<style type="text/css">
	.st0{fill:#F15B4F;}
</style>
	<g>
		<path class="st0" d="M752.21,169.82C684.82,102.51,595.25,65.43,500,65.43c-95.25,0-184.82,37.07-252.21,104.39
		c-67.38,67.32-104.55,156.86-104.66,252.18c0.07,69.29,19.23,134.18,58.6,198.37c33.46,54.56,76.3,101.48,121.66,151.14
		c43.37,47.5,88.23,96.62,123.65,152.67c9.39,14.84,25.48,23.7,43.04,23.7h19.85c17.57,0,33.66-8.86,43.04-23.71
		c35.41-56.02,80.26-105.14,123.64-152.65l5.14-5.62c18.92-20.74,17.45-53.01-3.29-71.94c-20.74-18.92-53-17.45-71.92,3.29
		l-5.11,5.6C567.33,740.17,532.24,778.6,500,821.77c-32.22-43.15-67.32-81.59-101.41-118.93
		c-82.37-90.21-153.52-168.11-153.63-280.84C245.12,281.54,359.53,167.27,500,167.27c140.47,0,254.88,114.24,255.04,254.63
		c-0.05,56.35-17.67,108.31-55.43,163.5c-15.86,23.17-9.9,54.93,13.27,70.78c11.22,7.68,24.78,10.53,38.13,8.02
		c13.37-2.51,24.96-10.07,32.64-21.29c49.89-72.9,73.16-143.12,73.23-220.99v-0.04C856.77,326.65,819.6,237.13,752.21,169.82z" />
		<path class="st0" d="M501.69,622.89c25.73,0,46.66-20.93,46.66-46.66v-87.28h84.7c25.73,0,46.66-20.93,46.66-46.66
		c0-25.73-20.93-46.66-46.66-46.66h-84.7v-87.28c0-25.73-20.93-46.66-46.66-46.66c-25.73,0-46.66,20.93-46.66,46.66v87.28h-88.08
		c-25.73,0-46.66,20.93-46.66,46.66c0,25.73,20.93,46.66,46.66,46.66h88.08v87.28C455.03,601.96,475.96,622.89,501.69,622.89z" />
	</g>
</svg>